<?xml version="1.0" encoding="UTF-8" standalone="no"?>
<!-- Created with Inkscape (http://www.inkscape.org/) -->

<svg
   xmlns:dc="http://purl.org/dc/elements/1.1/"
   xmlns:cc="http://creativecommons.org/ns#"
   xmlns:rdf="http://www.w3.org/1999/02/22-rdf-syntax-ns#"
   xmlns:svg="http://www.w3.org/2000/svg"
   xmlns="http://www.w3.org/2000/svg"
   xmlns:sodipodi="http://sodipodi.sourceforge.net/DTD/sodipodi-0.dtd"
   xmlns:inkscape="http://www.inkscape.org/namespaces/inkscape"
   width="16.482828mm"
   height="14.68959mm"
   viewBox="0 0 16.482828 14.68959"
   version="1.1"
   id="svg8634"
   inkscape:version="0.92.1 r15371"
   sodipodi:docname="system reset alternative.svg">
  <defs
     id="defs8628" />
  <sodipodi:namedview
     id="base"
     pagecolor="#ffffff"
     bordercolor="#666666"
     borderopacity="1.0"
     inkscape:pageopacity="0.0"
     inkscape:pageshadow="2"
     inkscape:zoom="2.8"
     inkscape:cx="-4.6683255"
     inkscape:cy="-42.37234"
     inkscape:document-units="mm"
     inkscape:current-layer="layer1"
     showgrid="false"
     fit-margin-top="0"
     fit-margin-left="0"
     fit-margin-right="0"
     fit-margin-bottom="0"
     inkscape:window-width="1920"
     inkscape:window-height="1017"
     inkscape:window-x="-8"
     inkscape:window-y="-8"
     inkscape:window-maximized="1" />
  <metadata
     id="metadata8631">
    <rdf:RDF>
      <cc:Work
         rdf:about="">
        <dc:format>image/svg+xml</dc:format>
        <dc:type
           rdf:resource="http://purl.org/dc/dcmitype/StillImage" />
        <dc:title></dc:title>
      </cc:Work>
    </rdf:RDF>
  </metadata>
  <g
     inkscape:label="Layer 1"
     inkscape:groupmode="layer"
     id="layer1"
     transform="translate(-3.0978698,-4.6612284)">
    <path
       style="fill:#ffff00;fill-opacity:1;fill-rule:evenodd;stroke:none;stroke-width:0.02839457;stroke-opacity:1"
       d="m 16.57252,12.014419 c 1.05e-4,-0.12493 0.0051,-0.172498 0.01117,-0.105723 0.0061,0.06677 0.0058,0.169001 -1.87e-4,0.227131 -0.0061,0.05815 -0.01093,0.0036 -0.01093,-0.121408 z"
       id="path9194"
       inkscape:connector-curvature="0" />
    <g
       transform="matrix(0.68537352,0,0,0.68528443,-8.4875111,-670.85989)"
       id="g9211"
       style="fill:#000000">
      <path
         inkscape:connector-curvature="0"
         id="path9190"
         d="m 27.559395,1005.5334 -0.130688,-0.6295 -0.727838,-0.2003 c -0.400311,-0.1102 -1.083864,-0.3634 -1.519009,-0.5627 l -0.791171,-0.3624 -0.601076,0.3736 c -0.330593,0.2056 -0.646476,0.3584 -0.701964,0.3397 -0.05549,-0.019 -0.654117,-0.5261 -1.330287,-1.1277 l -1.229399,-1.0937 0.408081,-0.5344 c 0.224445,-0.294 0.408082,-0.5864 0.408082,-0.6499 0,-0.063 -0.152391,-0.3854 -0.338645,-0.7155 -0.186255,-0.3301 -0.455092,-0.92461 -0.597416,-1.32107 -0.25824,-0.71936 -0.259888,-0.72099 -0.803933,-0.79769 -1.030851,-0.14532 -0.955319,0.003 -0.955319,-1.87415 v -1.67767 l 0.768439,-0.0823 c 0.691619,-0.0741 0.779952,-0.11351 0.883598,-0.39452 0.06334,-0.17172 0.331058,-0.77012 0.594935,-1.32979 l 0.479778,-1.01757 -0.428399,-0.5836 -0.428399,-0.5836 1.374967,-1.16677 1.374968,-1.16677 0.598916,0.39766 0.598916,0.39766 0.636062,-0.28089 c 0.349835,-0.15449 0.934868,-0.37491 1.300076,-0.48982 l 0.664013,-0.20893 0.140272,-0.74341 0.140271,-0.74342 h 1.920325 c 1.599874,0 1.920324,0.0284 1.920324,0.17002 0,0.38582 0.261942,1.35342 0.366391,1.35342 0.06193,0 0.613332,0.18755 1.225345,0.41678 l 1.112748,0.41677 0.662052,-0.40493 0.66205,-0.40492 1.296253,1.18546 c 0.712941,0.652 1.312391,1.22242 1.332113,1.2676 0.01973,0.0452 -0.146283,0.32076 -0.368903,0.61241 l -0.404761,0.53027 0.591825,1.16536 0.591825,1.16537 0.861062,0.1389 0.861062,0.1389 v 1.68139 1.68139 l -0.322266,0.0639 c -0.177246,0.0351 -0.52418,0.0987 -0.770963,0.14128 -0.304349,0.0525 -0.480192,0.15745 -0.546591,0.32627 -0.37721,0.95907 -0.885089,2.24141 -0.911896,2.30241 -0.0177,0.04 0.157973,0.3222 0.390387,0.6266 l 0.422573,0.5534 -0.644736,0.727 c -0.354604,0.3999 -0.878921,0.9898 -1.165149,1.311 l -0.520415,0.584 -0.676036,-0.4488 -0.676035,-0.4489 -0.892951,0.4158 c -0.491124,0.2286 -1.15574,0.5119 -1.476925,0.6295 -0.574404,0.2102 -0.585963,0.2242 -0.705528,0.8553 l -0.121555,0.6416 -1.834383,0.032 -1.834384,0.032 z m 3.747189,-2.3143 c 1.334209,-0.3697 2.170584,-0.8669 3.231553,-1.921 1.451306,-1.44192 2.037581,-2.82561 2.037581,-4.80898 0,-1.98226 -0.585875,-3.36558 -2.037581,-4.81099 -1.616737,-1.60973 -3.285638,-2.23839 -5.635418,-2.12281 -2.114235,0.10399 -3.535028,0.72618 -4.981321,2.18142 -2.103744,2.11675 -2.599465,5.11248 -1.291133,7.80255 0.633776,1.30311 2.174903,2.73471 3.605632,3.34931 1.441967,0.6194 3.53565,0.7559 5.070687,0.3305 z"
         style="fill:#000000;fill-opacity:1;fill-rule:evenodd;stroke:none;stroke-width:0.11718749;stroke-opacity:1" />
      <ellipse
         ry="7.4713569"
         rx="8.4819164"
         cy="995.99365"
         cx="29.294973"
         id="path9196"
         style="fill:#000000;fill-opacity:1;fill-rule:evenodd;stroke:none;stroke-width:1.03431356;stroke-opacity:1" />
    </g>
    <path
       sodipodi:type="star"
       style="fill:#ffffff;fill-opacity:1;fill-rule:evenodd;stroke:none;stroke-width:0.93749994;stroke-opacity:1"
       id="path8874"
       sodipodi:sides="3"
       sodipodi:cx="-27.545956"
       sodipodi:cy="974.55457"
       sodipodi:r1="2.5202124"
       sodipodi:r2="1.2601062"
       sodipodi:arg1="0.95054684"
       sodipodi:arg2="1.9977444"
       inkscape:flatsided="true"
       inkscape:rounded="0"
       inkscape:randomized="0"
       d="m -26.081112,976.60535 -3.973294,-1.80758 3.552057,-2.53719 z"
       inkscape:transform-center-x="-0.40819965"
       inkscape:transform-center-y="0.64343286"
       transform="matrix(0.09182735,-0.41592488,0.49686364,0.0518522,-474.07787,-50.658727)" />
    <path
       style="fill:#ffffff;fill-opacity:1;fill-rule:evenodd;stroke:none;stroke-width:0.04447034;stroke-opacity:1"
       d="m 16.155517,13.039819 c -0.37365,1.450554 -1.289078,2.551532 -2.610417,3.139575 -0.826198,0.367657 -1.644978,0.489568 -2.494662,0.371425 C 9.9333062,16.395465 8.9794493,15.88575 8.2323563,15.044905 7.6611198,14.402 7.2939882,13.674255 7.1413722,12.882299 l -0.023799,-0.123351 0.4414532,0.01603 0.4414531,0.01602 0.047404,0.168734 c 0.1935505,0.68831 0.7606391,1.493956 1.3566073,1.927331 0.7333842,0.533356 1.7193602,0.809252 2.5840822,0.722974 1.499871,-0.1496 2.701638,-1.054585 3.216822,-2.422309 0.145661,-0.386951 0.15909,-0.462691 0.183788,-1.039885 0.02016,-0.518985 0.01166,-0.680884 -0.06006,-0.973034 C 14.989515,9.8022753 13.939286,8.7710181 12.537814,8.4339148 12.047823,8.3160513 11.237485,8.3174596 10.757773,8.4365858 9.5955472,8.7261794 8.6099304,9.5712031 8.1781475,10.648231 l -0.1099862,0.274333 -0.441628,-0.01603 -0.4416304,-0.01603 0.036039,-0.143432 C 7.2904207,10.470965 7.5732838,9.8447805 7.7746201,9.5217363 8.898379,7.7186308 11.211898,6.9107485 13.210166,7.6236431 c 1.576912,0.5625713 2.730134,1.9353317 3.001826,3.5732849 0.0808,0.48756 0.05219,1.420047 -0.0562,1.842498 z"
       id="path9039"
       inkscape:connector-curvature="0" />
    <ellipse
       style="fill:#ffffff;fill-opacity:1;fill-rule:evenodd;stroke:none;stroke-width:0.11698984;stroke-opacity:1"
       id="path8815-0"
       cx="11.602334"
       cy="11.980263"
       rx="1.499589"
       ry="1.5513084" />
  </g>
</svg>
